<svg width="997" height="42" viewBox="0 0 997 42" fill="none" xmlns="http://www.w3.org/2000/svg">
<path d="M0 19.5225L960.073 21.0045" stroke="#595959" stroke-width="1.47704"/>
<path fill-rule="evenodd" clip-rule="evenodd" d="M962.752 17.5468C962.905 17.3936 963.113 17.3076 963.329 17.3076C963.546 17.3076 963.754 17.3936 963.907 17.5468L967.084 20.724C967.237 20.8772 967.323 21.0849 967.323 21.3015C967.323 21.5181 967.237 21.7259 967.084 21.8791L963.907 25.0559C963.754 25.209 963.546 25.295 963.329 25.295C963.113 25.295 962.905 25.209 962.752 25.0559L959.575 21.8791C959.422 21.7259 959.336 21.5181 959.336 21.3015C959.336 21.0849 959.422 20.8772 959.575 20.724L962.752 17.5468ZM963.329 18.1247L960.153 21.3015L963.329 24.4783L966.506 21.3015L963.329 18.1247Z" fill="#595959"/>
</svg>
